<?xml version="1.0" encoding="UTF-8"?>
<!DOCTYPE svg PUBLIC "-//W3C//DTD SVG 1.1//EN" "http://www.w3.org/Graphics/SVG/1.1/DTD/svg11.dtd">
<svg xmlns="http://www.w3.org/2000/svg" version="1.1" width="134px" height="126px" style="shape-rendering:geometricPrecision; text-rendering:geometricPrecision; image-rendering:optimizeQuality; fill-rule:evenodd; clip-rule:evenodd" xmlns:xlink="http://www.w3.org/1999/xlink">
<g><path style="opacity:1" fill="#151e2a" d="M 58.5,-0.5 C 64.8333,-0.5 71.1667,-0.5 77.5,-0.5C 85.375,1.56017 93.0417,4.39351 100.5,8C 102.24,9.51695 103.906,11.017 105.5,12.5C 105.833,13.1667 106.167,13.8333 106.5,14.5C 96.4944,14.3335 86.4944,14.5002 76.5,15C 78.5951,15.5556 78.7618,16.0556 77,16.5C 67.1144,12.5429 57.4477,8.20961 48,3.5C 45.9777,4.78648 43.8111,5.78648 41.5,6.5C 40.0044,9.49111 38.5044,12.4911 37,15.5C 36.5706,13.3313 37.0706,11.3313 38.5,9.5C 38.1667,9.16667 37.8333,8.83333 37.5,8.5C 30.307,12.0226 24.307,17.0226 19.5,23.5C 21.6667,23.8333 23.8333,24.1667 26,24.5C 28.6254,24.4188 30.9587,23.7522 33,22.5C 33.4643,23.0944 33.631,23.7611 33.5,24.5C 30.1125,30.9223 27.6125,37.589 26,44.5C 28.3806,43.565 30.8806,43.2317 33.5,43.5C 33.5,56.8333 33.5,70.1667 33.5,83.5C 31.8333,83.5 30.1667,83.5 28.5,83.5C 25.9132,77.1418 24.5798,70.4752 24.5,63.5C 26.5,63.5 28.5,63.5 30.5,63.5C 30.5,60.1667 30.5,56.8333 30.5,53.5C 27.1016,53.1796 23.7683,53.513 20.5,54.5C 17.6735,61.0779 17.0069,60.7446 18.5,53.5C 14.1083,53.7574 9.775,54.4241 5.5,55.5C 3.97644,63.6947 4.6431,71.6947 7.5,79.5C 10.5901,73.6517 13.4234,67.6517 16,61.5C 14.5719,68.0498 12.2386,74.3832 9,80.5C 8.20178,83.7107 8.70178,86.7107 10.5,89.5C 13.4911,90.9956 16.4911,92.4956 19.5,94C 17.3313,94.4294 15.3313,93.9294 13.5,92.5C 13.1667,92.8333 12.8333,93.1667 12.5,93.5C 17.053,101.388 22.7197,108.388 29.5,114.5C 15.2683,104.695 6.76833,91.0281 4,73.5C 2.00518,60.1782 3.83851,47.5116 9.5,35.5C 19.8969,15.4638 36.2303,3.46381 58.5,-0.5 Z"/></g>
<g><path style="opacity:1" fill="#111b27" d="M -0.5,-0.5 C 19.1667,-0.5 38.8333,-0.5 58.5,-0.5C 36.2303,3.46381 19.8969,15.4638 9.5,35.5C 6.37518,34.5206 3.04185,34.1872 -0.5,34.5C -0.5,22.8333 -0.5,11.1667 -0.5,-0.5 Z"/></g>
<g><path style="opacity:1" fill="#111b27" d="M 77.5,-0.5 C 96.1667,-0.5 114.833,-0.5 133.5,-0.5C 133.5,4.5 133.5,9.5 133.5,14.5C 125.648,14.1746 117.982,14.508 110.5,15.5C 109.341,13.7497 107.674,12.7497 105.5,12.5C 103.906,11.017 102.24,9.51695 100.5,8C 93.0417,4.39351 85.375,1.56017 77.5,-0.5 Z"/></g>
<g><path style="opacity:1" fill="#101a25" d="M 106.5,14.5 C 109.5,16.8333 112.167,19.5 114.5,22.5C 105.104,24.5178 95.9373,23.5178 87,19.5C 86.5,19.6667 86,19.8333 85.5,20C 87.5,21 89.5,22 91.5,23C 72.1862,24.2231 52.8528,24.7231 33.5,24.5C 33.631,23.7611 33.4643,23.0944 33,22.5C 30.9587,23.7522 28.6254,24.4188 26,24.5C 23.8333,24.1667 21.6667,23.8333 19.5,23.5C 24.307,17.0226 30.307,12.0226 37.5,8.5C 37.8333,8.83333 38.1667,9.16667 38.5,9.5C 37.0706,11.3313 36.5706,13.3313 37,15.5C 38.5044,12.4911 40.0044,9.49111 41.5,6.5C 43.8111,5.78648 45.9777,4.78648 48,3.5C 57.4477,8.20961 67.1144,12.5429 77,16.5C 78.7618,16.0556 78.5951,15.5556 76.5,15C 86.4944,14.5002 96.4944,14.3335 106.5,14.5 Z"/></g>
<g><path style="opacity:1" fill="#141e2a" d="M 114.5,22.5 C 118.511,26.524 121.511,31.1907 123.5,36.5C 121.488,35.7717 119.488,34.9383 117.5,34C 102.837,33.5001 88.1705,33.3334 73.5,33.5C 73.5,34.8333 73.5,36.1667 73.5,37.5C 79.8333,37.5 86.1667,37.5 92.5,37.5C 92.5,38.8333 92.5,40.1667 92.5,41.5C 94.4832,41.1568 95.8166,41.8235 96.5,43.5C 93.1667,43.5 89.8333,43.5 86.5,43.5C 83.8333,43.5 81.1667,43.5 78.5,43.5C 70.8333,43.5 63.1667,43.5 55.5,43.5C 48.5,43.5 41.5,43.5 34.5,43.5C 34.1667,43.5 33.8333,43.5 33.5,43.5C 30.8806,43.2317 28.3806,43.565 26,44.5C 27.6125,37.589 30.1125,30.9223 33.5,24.5C 52.8528,24.7231 72.1862,24.2231 91.5,23C 89.5,22 87.5,21 85.5,20C 86,19.8333 86.5,19.6667 87,19.5C 95.9373,23.5178 105.104,24.5178 114.5,22.5 Z"/></g>
<g><path style="opacity:1" fill="#0f1824" d="M -0.5,34.5 C 3.04185,34.1872 6.37518,34.5206 9.5,35.5C 3.83851,47.5116 2.00518,60.1782 4,73.5C 6.76833,91.0281 15.2683,104.695 29.5,114.5C 30.8021,116.822 32.8021,118.155 35.5,118.5C 39.4634,120.828 43.4634,123.162 47.5,125.5C 31.5,125.5 15.5,125.5 -0.5,125.5C -0.5,95.1667 -0.5,64.8333 -0.5,34.5 Z"/></g>
<g><path style="opacity:1" fill="#0f1925" d="M 110.5,15.5 C 117.982,14.508 125.648,14.1746 133.5,14.5C 133.5,51.5 133.5,88.5 133.5,125.5C 120.167,125.5 106.833,125.5 93.5,125.5C 93.631,124.761 93.4643,124.094 93,123.5C 91.9505,124.517 90.7839,124.684 89.5,124C 102.691,119.295 113.024,111.128 120.5,99.5C 120.333,99.1667 120.167,98.8333 120,98.5C 118.471,99.7287 117.304,101.229 116.5,103C 111.98,103.814 107.646,103.647 103.5,102.5C 104.463,99.2558 105.796,96.2558 107.5,93.5C 112.5,93.5 117.5,93.5 122.5,93.5C 122.393,95.3786 122.893,95.7119 124,94.5C 132.08,78.105 133.58,61.105 128.5,43.5C 129.747,41.677 130.414,39.677 130.5,37.5C 128.516,37.6168 126.85,36.9501 125.5,35.5C 121.927,27.6527 116.927,20.986 110.5,15.5 Z"/></g>
<g><path style="opacity:1" fill="#a4deff" d="M 78.5,44.5 C 80.8333,44.5 83.1667,44.5 85.5,44.5C 85.1716,56.6783 85.5049,68.6783 86.5,80.5C 86.8333,80.5 87.1667,80.5 87.5,80.5C 87.5,82.8333 87.5,85.1667 87.5,87.5C 84.5,87.5 81.5,87.5 78.5,87.5C 78.5,73.1667 78.5,58.8333 78.5,44.5 Z"/></g>
<g><path style="opacity:1" fill="#648398" d="M 78.5,44.5 C 78.5,44.1667 78.5,43.8333 78.5,43.5C 81.1667,43.5 83.8333,43.5 86.5,43.5C 86.5,55.8333 86.5,68.1667 86.5,80.5C 85.5049,68.6783 85.1716,56.6783 85.5,44.5C 83.1667,44.5 80.8333,44.5 78.5,44.5 Z"/></g>
<g><path style="opacity:1" fill="#101925" d="M 28.5,83.5 C 27.325,83.281 26.325,83.6143 25.5,84.5C 30.6968,85.3583 33.3635,88.3583 33.5,93.5C 29.1539,93.3343 24.8206,93.501 20.5,94C 22.7274,94.941 24.7274,96.1077 26.5,97.5C 29.8267,99.8301 33.4933,101.663 37.5,103C 34.8333,103.333 32.1667,103.667 29.5,104C 32.4506,106.625 35.1173,109.459 37.5,112.5C 46.1475,113.332 54.8142,113.832 63.5,114C 70.1361,116.983 76.8028,119.983 83.5,123C 71.8333,123.667 60.1667,123.667 48.5,123C 44.1352,121.479 39.8019,119.979 35.5,118.5C 32.8021,118.155 30.8021,116.822 29.5,114.5C 22.7197,108.388 17.053,101.388 12.5,93.5C 12.8333,93.1667 13.1667,92.8333 13.5,92.5C 15.3313,93.9294 17.3313,94.4294 19.5,94C 16.4911,92.4956 13.4911,90.9956 10.5,89.5C 8.70178,86.7107 8.20178,83.7107 9,80.5C 12.2386,74.3832 14.5719,68.0498 16,61.5C 13.4234,67.6517 10.5901,73.6517 7.5,79.5C 4.6431,71.6947 3.97644,63.6947 5.5,55.5C 9.775,54.4241 14.1083,53.7574 18.5,53.5C 17.0069,60.7446 17.6735,61.0779 20.5,54.5C 23.7683,53.513 27.1016,53.1796 30.5,53.5C 30.5,56.8333 30.5,60.1667 30.5,63.5C 28.5,63.5 26.5,63.5 24.5,63.5C 24.5798,70.4752 25.9132,77.1418 28.5,83.5 Z"/></g>
<g><path style="opacity:1" fill="#111b27" d="M 123.5,36.5 C 126.139,39.2985 126.972,42.6319 126,46.5C 123.472,51.7505 121.139,57.0839 119,62.5C 112.924,63.4764 106.758,63.8097 100.5,63.5C 100.5,60.1667 100.5,56.8333 100.5,53.5C 102.167,53.5 103.833,53.5 105.5,53.5C 105.5,50.8333 105.5,48.1667 105.5,45.5C 102.145,45.9086 99.1445,45.2419 96.5,43.5C 95.8166,41.8235 94.4832,41.1568 92.5,41.5C 92.5,40.1667 92.5,38.8333 92.5,37.5C 86.1667,37.5 79.8333,37.5 73.5,37.5C 73.5,36.1667 73.5,34.8333 73.5,33.5C 88.1705,33.3334 102.837,33.5001 117.5,34C 119.488,34.9383 121.488,35.7717 123.5,36.5 Z"/></g>
<g><path style="opacity:1" fill="#17212c" d="M 105.5,12.5 C 107.674,12.7497 109.341,13.7497 110.5,15.5C 116.927,20.986 121.927,27.6527 125.5,35.5C 126.85,36.9501 128.516,37.6168 130.5,37.5C 130.414,39.677 129.747,41.677 128.5,43.5C 133.58,61.105 132.08,78.105 124,94.5C 122.893,95.7119 122.393,95.3786 122.5,93.5C 130.105,78.7856 131.771,63.4522 127.5,47.5C 120.288,62.5909 113.622,77.9242 107.5,93.5C 105.796,96.2558 104.463,99.2558 103.5,102.5C 102.046,105.408 100.546,108.408 99,111.5C 99.1529,108.826 99.6529,106.16 100.5,103.5C 102.535,100.6 104.201,97.4338 105.5,94C 100.177,93.5006 94.8437,93.334 89.5,93.5C 91.6628,91.2593 93.9962,89.2593 96.5,87.5C 99.1667,87.5 101.833,87.5 104.5,87.5C 104.5,85.1667 104.5,82.8333 104.5,80.5C 98.8333,80.5 93.1667,80.5 87.5,80.5C 87.1667,80.5 86.8333,80.5 86.5,80.5C 86.5,68.1667 86.5,55.8333 86.5,43.5C 89.8333,43.5 93.1667,43.5 96.5,43.5C 99.1445,45.2419 102.145,45.9086 105.5,45.5C 105.5,48.1667 105.5,50.8333 105.5,53.5C 103.833,53.5 102.167,53.5 100.5,53.5C 100.5,56.8333 100.5,60.1667 100.5,63.5C 106.758,63.8097 112.924,63.4764 119,62.5C 121.139,57.0839 123.472,51.7505 126,46.5C 126.972,42.6319 126.139,39.2985 123.5,36.5C 121.511,31.1907 118.511,26.524 114.5,22.5C 112.167,19.5 109.5,16.8333 106.5,14.5C 106.167,13.8333 105.833,13.1667 105.5,12.5 Z"/></g>
<g><path style="opacity:1" fill="#1e2834" d="M 33.5,43.5 C 33.8333,43.5 34.1667,43.5 34.5,43.5C 34.5,43.8333 34.5,44.1667 34.5,44.5C 34.5,58.8333 34.5,73.1667 34.5,87.5C 38.8333,87.5 43.1667,87.5 47.5,87.5C 65.7031,86.4869 73.5364,76.8202 71,58.5C 67.8942,51.2253 62.7276,46.2253 55.5,43.5C 63.1667,43.5 70.8333,43.5 78.5,43.5C 78.5,43.8333 78.5,44.1667 78.5,44.5C 78.5,58.8333 78.5,73.1667 78.5,87.5C 81.5,87.5 84.5,87.5 87.5,87.5C 90.5,87.5 93.5,87.5 96.5,87.5C 93.9962,89.2593 91.6628,91.2593 89.5,93.5C 70.8333,93.5 52.1667,93.5 33.5,93.5C 33.3635,88.3583 30.6968,85.3583 25.5,84.5C 26.325,83.6143 27.325,83.281 28.5,83.5C 30.1667,83.5 31.8333,83.5 33.5,83.5C 33.5,70.1667 33.5,56.8333 33.5,43.5 Z"/></g>
<g><path style="opacity:1" fill="#1e2732" d="M 53.5,51.5 C 62.2473,54.8527 65.414,61.186 63,70.5C 60.378,77.5997 55.2113,80.933 47.5,80.5C 45.8333,80.5 44.1667,80.5 42.5,80.5C 42.5,70.8333 42.5,61.1667 42.5,51.5C 46.1667,51.5 49.8333,51.5 53.5,51.5 Z"/></g>
<g><path style="opacity:1" fill="#55788e" d="M 47.5,50.5 C 49.7354,50.2053 51.7354,50.5386 53.5,51.5C 49.8333,51.5 46.1667,51.5 42.5,51.5C 42.5,61.1667 42.5,70.8333 42.5,80.5C 41.506,70.6806 41.1726,60.6806 41.5,50.5C 43.5,50.5 45.5,50.5 47.5,50.5 Z"/></g>
<g><path style="opacity:1" fill="#a0ddff" d="M 34.5,44.5 C 38.8333,44.5 43.1667,44.5 47.5,44.5C 47.5,46.5 47.5,48.5 47.5,50.5C 45.5,50.5 43.5,50.5 41.5,50.5C 41.1726,60.6806 41.506,70.6806 42.5,80.5C 44.1667,80.5 45.8333,80.5 47.5,80.5C 47.5,82.8333 47.5,85.1667 47.5,87.5C 43.1667,87.5 38.8333,87.5 34.5,87.5C 34.5,73.1667 34.5,58.8333 34.5,44.5 Z"/></g>
<g><path style="opacity:1" fill="#111b27" d="M 122.5,93.5 C 117.5,93.5 112.5,93.5 107.5,93.5C 113.622,77.9242 120.288,62.5909 127.5,47.5C 131.771,63.4522 130.105,78.7856 122.5,93.5 Z"/></g>
<g><path style="opacity:1" fill="#64c4f9" d="M 34.5,44.5 C 34.5,44.1667 34.5,43.8333 34.5,43.5C 41.5,43.5 48.5,43.5 55.5,43.5C 62.7276,46.2253 67.8942,51.2253 71,58.5C 73.5364,76.8202 65.7031,86.4869 47.5,87.5C 47.5,85.1667 47.5,82.8333 47.5,80.5C 55.2113,80.933 60.378,77.5997 63,70.5C 65.414,61.186 62.2473,54.8527 53.5,51.5C 51.7354,50.5386 49.7354,50.2053 47.5,50.5C 47.5,48.5 47.5,46.5 47.5,44.5C 43.1667,44.5 38.8333,44.5 34.5,44.5 Z"/></g>
<g><path style="opacity:1" fill="#d1ecfc" d="M 87.5,80.5 C 93.1667,80.5 98.8333,80.5 104.5,80.5C 104.5,82.8333 104.5,85.1667 104.5,87.5C 101.833,87.5 99.1667,87.5 96.5,87.5C 93.5,87.5 90.5,87.5 87.5,87.5C 87.5,85.1667 87.5,82.8333 87.5,80.5 Z"/></g>
<g><path style="opacity:1" fill="#101925" d="M 33.5,93.5 C 52.1667,93.5 70.8333,93.5 89.5,93.5C 94.8437,93.334 100.177,93.5006 105.5,94C 104.201,97.4338 102.535,100.6 100.5,103.5C 80.4972,103.667 60.4972,103.5 40.5,103C 35.9162,100.863 31.2495,99.0295 26.5,97.5C 24.7274,96.1077 22.7274,94.941 20.5,94C 24.8206,93.501 29.1539,93.3343 33.5,93.5 Z"/></g>
<g><path style="opacity:1" fill="#131c28" d="M 26.5,97.5 C 31.2495,99.0295 35.9162,100.863 40.5,103C 60.4972,103.5 80.4972,103.667 100.5,103.5C 99.6529,106.16 99.1529,108.826 99,111.5C 100.546,108.408 102.046,105.408 103.5,102.5C 107.646,103.647 111.98,103.814 116.5,103C 117.304,101.229 118.471,99.7287 120,98.5C 120.167,98.8333 120.333,99.1667 120.5,99.5C 113.024,111.128 102.691,119.295 89.5,124C 90.7839,124.684 91.9505,124.517 93,123.5C 93.4643,124.094 93.631,124.761 93.5,125.5C 78.1667,125.5 62.8333,125.5 47.5,125.5C 43.4634,123.162 39.4634,120.828 35.5,118.5C 39.8019,119.979 44.1352,121.479 48.5,123C 60.1667,123.667 71.8333,123.667 83.5,123C 76.8028,119.983 70.1361,116.983 63.5,114C 54.8142,113.832 46.1475,113.332 37.5,112.5C 35.1173,109.459 32.4506,106.625 29.5,104C 32.1667,103.667 34.8333,103.333 37.5,103C 33.4933,101.663 29.8267,99.8301 26.5,97.5 Z"/></g>
</svg>
